<?xml version="1.0" encoding="utf-8"?>
<!-- Generator: Adobe Illustrator 16.0.0, SVG Export Plug-In . SVG Version: 6.00 Build 0)  -->
<!DOCTYPE svg PUBLIC "-//W3C//DTD SVG 1.1//EN" "http://www.w3.org/Graphics/SVG/1.1/DTD/svg11.dtd">
<svg version="1.1" id="Capa_1" xmlns="http://www.w3.org/2000/svg" xmlns:xlink="http://www.w3.org/1999/xlink" x="0px" y="0px"
	 width="28.036px" height="33.5px" viewBox="18.5 738.125 28.036 33.5" enable-background="new 18.5 738.125 28.036 33.5"
	 xml:space="preserve">
<g>
	<path d="M32.518,739.061c-6.37,0-11.553,5.184-11.553,11.553c0,3.85,3.54,9.922,5.062,12.355c1.252,2.002,2.597,3.904,3.784,5.357
		c1.933,2.363,2.476,2.363,2.707,2.363c0.223,0,0.744,0,2.669-2.363c1.191-1.463,2.537-3.365,3.788-5.357
		c1.532-2.438,5.096-8.523,5.096-12.355C44.07,744.244,38.889,739.061,32.518,739.061z M32.518,759.945
		c-5.039,0-9.14-4.1-9.14-9.139s4.101-9.141,9.14-9.141c5.04,0,9.14,4.102,9.14,9.141S37.558,759.945,32.518,759.945z"/>
	<path d="M39.19,747.299c-0.063,0-0.129,0.01-0.193,0.027l-0.733,0.203l-0.763-1.857c-0.216-0.525-0.854-0.953-1.422-0.953h-7.132
		c-0.569,0-1.207,0.428-1.423,0.953l-0.761,1.854l-0.725-0.199c-0.065-0.018-0.13-0.027-0.193-0.027
		c-0.347,0-0.599,0.266-0.599,0.631v0.434c0,0.426,0.347,0.771,0.772,0.771h0.083l-0.123,0.299c-0.2,0.49-0.363,1.316-0.363,1.846
		v3.688c0,0.426,0.347,0.773,0.772,0.773h1.01c0.426,0,0.772-0.348,0.772-0.773v-0.922h8.684v0.922c0,0.426,0.347,0.773,0.773,0.773
		h1.009c0.426,0,0.772-0.348,0.772-0.773v-3.688c0-0.529-0.163-1.355-0.363-1.846l-0.123-0.299h0.094
		c0.426,0,0.772-0.346,0.772-0.771v-0.434C39.789,747.564,39.537,747.299,39.19,747.299z M27.317,748.715l1.152-2.807
		c0.13-0.316,0.514-0.572,0.854-0.572h6.379c0.341,0,0.725,0.256,0.854,0.572l1.152,2.807c0.13,0.314-0.043,0.572-0.383,0.572
		h-9.624C27.361,749.287,27.188,749.029,27.317,748.715z M29.891,752.268c0,0.17-0.139,0.309-0.309,0.309h-2.19
		c-0.17,0-0.309-0.139-0.309-0.309v-1.051c0-0.172,0.139-0.311,0.309-0.311h2.19c0.17,0,0.309,0.139,0.309,0.311V752.268z
		 M37.922,752.268c0,0.17-0.139,0.309-0.309,0.309h-2.189c-0.171,0-0.31-0.139-0.31-0.309v-1.051c0-0.172,0.139-0.311,0.31-0.311
		h2.189c0.17,0,0.309,0.139,0.309,0.311V752.268z"/>
</g>
</svg>
