<?xml version="1.0" encoding="iso-8859-1"?>
<!-- Generator: Adobe Illustrator 16.0.0, SVG Export Plug-In . SVG Version: 6.00 Build 0)  -->
<!DOCTYPE svg PUBLIC "-//W3C//DTD SVG 1.1//EN" "http://www.w3.org/Graphics/SVG/1.1/DTD/svg11.dtd">
<svg version="1.1" id="Capa_1" xmlns="http://www.w3.org/2000/svg" xmlns:xlink="http://www.w3.org/1999/xlink" x="0px" y="0px"
	 width="62.41px" height="62.41px" viewBox="0 0 62.41 62.41" style="enable-background:new 0 0 62.41 62.41;" xml:space="preserve"
	>
<g>
	<g>
		<path d="M49.064,25.09H12.44c-0.827,0-1.5,0.673-1.5,1.5v11.167c0,0.826,0.673,1.5,1.5,1.5h36.625c0.828,0,1.5-0.674,1.5-1.5
			V26.59C50.564,25.763,49.893,25.09,49.064,25.09z M43.641,35.799c-1.021,0-1.969-0.447-2.658-1.209H20.159
			c-0.689,0.762-1.636,1.209-2.657,1.209c-1.999,0-3.625-1.625-3.625-3.625c0-1.999,1.626-3.625,3.625-3.625
			c0.923,0,1.778,0.357,2.452,0.986h21.233c0.674-0.629,1.529-0.986,2.451-0.986c2,0,3.625,1.626,3.625,3.625
			C47.264,34.174,45.639,35.799,43.641,35.799z"/>
		<path d="M43.32,18.34c0-0.827-0.672-1.5-1.5-1.5H19.684c-0.827,0-1.5,0.673-1.5,1.5l-0.047,0.212l-2.589,5.538h30.416L43.32,18.34
			z"/>
		<path d="M31.205,0C13.971,0,0,13.971,0,31.205C0,48.439,13.971,62.41,31.205,62.41c17.234,0,31.205-13.971,31.205-31.205
			C62.41,13.971,48.439,0,31.205,0z M51.564,37.758c0,1.377-1.121,2.5-2.5,2.5h-1.362v2.666c0,1.379-1.121,2.5-2.5,2.5h-3.125
			c-1.38,0-2.5-1.121-2.5-2.5v-2.666H21.565v2.666c0,1.379-1.121,2.5-2.5,2.5H15.94c-1.379,0-2.5-1.121-2.5-2.5v-2.666h-1
			c-1.379,0-2.5-1.123-2.5-2.5V26.59c0-1.378,1.121-2.5,2.5-2.5h2.004l2.743-5.867c0.062-1.325,1.158-2.383,2.497-2.383h22.138
			c1.339,0,2.436,1.059,2.496,2.383l2.744,5.867h2.002c1.379,0,2.5,1.122,2.5,2.5V37.758z"/>
		<path d="M40.577,42.924c0,0.827,0.673,1.5,1.5,1.5h3.125c0.827,0,1.5-0.673,1.5-1.5v-2.666h-6.125V42.924z"/>
		<path d="M20.777,30.661c0.077,0.166,0.139,0.335,0.189,0.511c0.023,0.076,0.05,0.149,0.067,0.227
			c0.057,0.254,0.093,0.512,0.093,0.775c0,0.225-0.026,0.447-0.068,0.666c-0.014,0.069-0.036,0.137-0.053,0.204
			c-0.039,0.15-0.084,0.298-0.142,0.44c-0.014,0.035-0.019,0.07-0.033,0.105h19.479c-0.015-0.035-0.02-0.07-0.033-0.105
			c-0.058-0.143-0.103-0.29-0.141-0.44c-0.018-0.067-0.04-0.135-0.054-0.204c-0.042-0.219-0.067-0.441-0.067-0.666
			c0-0.264,0.035-0.521,0.092-0.775c0.019-0.077,0.045-0.15,0.066-0.227c0.053-0.176,0.113-0.347,0.189-0.512
			c0.021-0.041,0.027-0.085,0.048-0.125H20.731C20.751,30.576,20.758,30.621,20.777,30.661z"/>
		<path d="M43.641,29.549c-0.726,0-1.4,0.294-1.906,0.829c-0.348,0.371-0.578,0.822-0.672,1.306c-0.031,0.16-0.047,0.324-0.047,0.49
			c0,0.578,0.195,1.135,0.566,1.608c0.506,0.646,1.256,1.017,2.059,1.017c1.446,0,2.625-1.178,2.625-2.625
			C46.266,30.727,45.087,29.549,43.641,29.549z"/>
		<path d="M17.502,29.549c-1.447,0-2.625,1.178-2.625,2.625c0,1.447,1.178,2.625,2.625,2.625c0.802,0,1.552-0.371,2.058-1.017
			c0.371-0.474,0.567-1.03,0.567-1.608c0-0.664-0.256-1.302-0.72-1.796C18.903,29.844,18.227,29.549,17.502,29.549z"/>
		<path d="M14.44,42.924c0,0.827,0.673,1.5,1.5,1.5h3.125c0.827,0,1.5-0.673,1.5-1.5v-2.666H14.44V42.924z"/>
	</g>
</g>
<g>
</g>
<g>
</g>
<g>
</g>
<g>
</g>
<g>
</g>
<g>
</g>
<g>
</g>
<g>
</g>
<g>
</g>
<g>
</g>
<g>
</g>
<g>
</g>
<g>
</g>
<g>
</g>
<g>
</g>
</svg>
