<svg width="22" height="22" viewBox="0 0 22 22" fill="none" xmlns="http://www.w3.org/2000/svg">
<path d="M17.4883 0H4.51172C2.02421 0 0 2.87888 0 6.41667V15.5833C0 19.1211 2.02421 22 4.51172 22H17.4883C19.9758 22 22 19.1211 22 15.5833V6.41667C22 2.87888 19.9758 0 17.4883 0Z" fill="#180101"/>
<path d="M17.4883 0H4.51172C2.02421 0 0 2.87888 0 6.41667V15.5833C0 19.1211 2.02421 22 4.51172 22H17.4883C19.9758 22 22 19.1211 22 15.5833V6.41667C22 2.87888 19.9758 0 17.4883 0Z" fill="#7B0305"/>
<path d="M15.8028 7.20168L9.54791 13.2837L6.20159 9.88016C5.9267 9.60056 5.48106 9.60056 5.20617 9.88016C4.93128 10.1595 4.93128 10.6128 5.20617 10.8924L9.03961 14.7917C9.17198 14.9274 9.35289 15.0026 9.54085 14.9999C9.72308 15.0019 9.89847 14.9295 10.028 14.7991L16.7842 8.23551C17.0648 7.96017 17.0729 7.50508 16.8018 7.21964C16.5307 6.93397 16.0837 6.92589 15.8028 7.20168V7.20168Z" fill="white"/>
</svg>
