<svg width="22" height="22" viewBox="0 0 22 22" fill="none" xmlns="http://www.w3.org/2000/svg">
<path d="M17.4883 0H4.51172C2.02396 0 0 2.87852 0 6.41667V15.5833C0 19.1215 2.02396 22 4.51172 22H17.4883C19.976 22 22 19.1215 22 15.5833V6.41667C22 2.87852 19.976 0 17.4883 0ZM20.7109 15.5833C20.7109 18.1106 19.2653 20.1667 17.4883 20.1667H4.51172C2.73475 20.1667 1.28906 18.1106 1.28906 15.5833V6.41667C1.28906 3.88942 2.73475 1.83333 4.51172 1.83333H17.4883C19.2653 1.83333 20.7109 3.88942 20.7109 6.41667V15.5833Z" fill="#180101"/>
<path d="M17.4883 0H4.51172C2.02396 0 0 2.87852 0 6.41667V15.5833C0 19.1215 2.02396 22 4.51172 22H17.4883C19.976 22 22 19.1215 22 15.5833V6.41667C22 2.87852 19.976 0 17.4883 0ZM20.7109 15.5833C20.7109 18.1106 19.2653 20.1667 17.4883 20.1667H4.51172C2.73475 20.1667 1.28906 18.1106 1.28906 15.5833V6.41667C1.28906 3.88942 2.73475 1.83333 4.51172 1.83333H17.4883C19.2653 1.83333 20.7109 3.88942 20.7109 6.41667V15.5833Z" fill="#7B0305"/>
</svg>
